HIERARCHY
ROOT Hips
{
	OFFSET 0.00 0.00 0.00
	CHANNELS 6 Xposition Yposition Zposition Xrotation Yrotation Zrotation
	JOINT RightUpLeg
	{
		OFFSET -3.76699 0.00000 0.00000
		CHANNELS 3 Xrotation Yrotation Zrotation
		JOINT RightLeg
		{
			OFFSET 0.00000 -18.01768 0.00000
			CHANNELS 3 Xrotation Yrotation Zrotation
			JOINT RightFoot
			{
				OFFSET 0.00000 -16.88108 0.00000
				CHANNELS 3 Xrotation Yrotation Zrotation
				JOINT RightToeBase
				{
					OFFSET 0.00000 -1.49359 5.57418
					CHANNELS 3 Xrotation Yrotation Zrotation
					End Site
					{
						OFFSET 0.00000 0.00000 2.95275
					}
				}
			}
		}
	}
	JOINT LeftUpLeg
	{
		OFFSET 3.76699 0.00000 0.00000
		CHANNELS 3 Xrotation Yrotation Zrotation
		JOINT LeftLeg
		{
			OFFSET 0.00000 -18.01768 0.00000
			CHANNELS 3 Xrotation Yrotation Zrotation
			JOINT LeftFoot
			{
				OFFSET 0.00000 -16.88108 0.00000
				CHANNELS 3 Xrotation Yrotation Zrotation
				JOINT LeftToeBase
				{
					OFFSET 0.00000 -1.49359 5.57418
					CHANNELS 3 Xrotation Yrotation Zrotation
					End Site
					{
						OFFSET 0.00000 0.00000 2.95275
					}
				}
			}
		}
	}
	JOINT Spine
	{
		OFFSET 0.00000 7.77970 0.00000
		CHANNELS 3 Xrotation Yrotation Zrotation
		JOINT RightShoulder
		{
			OFFSET 0.00000 10.94176 0.00000
			CHANNELS 3 Xrotation Yrotation Zrotation
			JOINT RightArm
			{
				OFFSET -7.70894 0.00000 0.00000
				CHANNELS 3 Xrotation Yrotation Zrotation
				JOINT RightForeArm
				{
					OFFSET -11.52135 0.00000 0.00000
					CHANNELS 3 Yrotation Zrotation Xrotation
					JOINT RightHand
					{
						OFFSET -10.17590 0.00000 0.00000
						CHANNELS 3 Xrotation Yrotation Zrotation
						End Site
						{
							OFFSET -3.93700 0.00000 0.00000
						}
						JOINT RightHandThumb1
						{
							OFFSET 0.00000 0.00000 0.00000
							CHANNELS 3 Xrotation Zrotation Yrotation
							End Site
							{
								OFFSET 0.00000 0.00000 3.93700
							}
						}
					}
				}
			}
		}
		JOINT LeftShoulder
		{
			OFFSET 0.00000 10.94176 0.00000
			CHANNELS 3 Xrotation Yrotation Zrotation
			JOINT LeftArm
			{
				OFFSET 7.70894 0.00000 0.00000
				CHANNELS 3 Xrotation Yrotation Zrotation
				JOINT LeftForeArm
				{
					OFFSET 11.52135 0.00000 0.00000
					CHANNELS 3 Yrotation Zrotation Xrotation
					JOINT LeftHand
					{
						OFFSET 10.17590 0.00000 0.00000
						CHANNELS 3 Xrotation Yrotation Zrotation
						End Site
						{
							OFFSET 3.93700 0.00000 0.00000
						}
						JOINT LeftHandThumb1
						{
							OFFSET 0.00000 0.00000 0.00000
							CHANNELS 3 Xrotation Zrotation Yrotation
							End Site
							{
								OFFSET 0.00000 0.00000 3.93700
							}
						}
					}
				}
			}
		}
		JOINT Head
		{
			OFFSET 0.00000 16.64604 0.00000
			CHANNELS 3 Xrotation Yrotation Zrotation
			End Site
			{
				OFFSET 0.00000 4.52755 0.00000
			}
		}
	}
}
MOTION
Frames:	20
Frame Time: 0.008333
2.9673 35.9949 2.7423 -3.1514 13.6435 10.3164 16.9810 20.7141 -9.1875 93.2185 -0.0000 -0.0000 -22.8632 -28.6067 1.1403 -0.5976 0.0000 -0.0000 10.1808 -11.0590 -16.1569 -8.7930 0.0000 -0.0000 -8.2306 16.4136 0.2529 5.0911 -0.0000 -0.0000 5.9783 -14.9664 -6.3419 37.4568 -23.7766 6.4912 -53.3671 -22.1373 52.4015 101.0427 0.0000 6.3108 -12.7791 -15.9403 -39.5520 33.1476 -0.0000 -26.2537 29.8674 1.4584 9.3878 -11.4864 -29.7575 -58.9488 -58.4565 0.0000 0.4788 0.0003 0.0755 -0.1916 32.8623 0.0000 24.3270 43.5808 -27.1040 18.6290
2.9611 35.9913 2.7226 -3.2007 13.5699 10.3690 16.6339 20.6854 -9.1251 92.8730 -0.0000 -0.0000 -22.7821 -28.5847 1.3878 -0.6465 0.0000 -0.0000 10.2027 -11.1291 -16.1907 -8.8582 0.0000 -0.0000 -8.1745 16.4974 0.2275 5.1425 -0.0000 -0.0000 6.1779 -14.9205 -6.4365 37.4083 -23.7043 6.4663 -53.3615 -22.1545 52.4490 101.0156 0.0000 6.2956 -12.7975 -15.9000 -39.6631 33.1476 -0.0000 -26.2537 29.8860 1.4401 9.4255 -11.3841 -29.6744 -58.8093 -58.3107 -0.0000 0.4545 0.0001 0.0445 -0.1649 32.8623 0.0000 24.3270 43.5237 -27.0122 18.6125
2.9559 35.9870 2.7043 -3.2329 13.4642 10.4183 16.2879 20.6820 -9.0681 92.5256 -0.0000 -0.0000 -22.6994 -28.5426 1.4764 -0.6884 0.0000 -0.0000 10.2195 -11.2436 -16.2292 -8.9715 0.0000 -0.0000 -8.0916 16.6568 0.2442 5.1198 -0.0000 -0.0000 6.3432 -14.8760 -6.5320 37.3558 -23.6111 6.4163 -53.3632 -22.1662 52.4875 100.9789 -0.0000 6.3177 -12.8388 -15.8633 -39.8205 33.1476 -0.0000 -26.2537 29.8965 1.4129 9.4433 -11.2682 -29.5417 -58.6981 -58.1356 0.0000 0.4700 0.0001 0.0325 -0.1465 32.8623 0.0000 24.3270 43.4687 -26.9158 18.5147
2.9541 35.9831 2.6925 -3.3100 13.2986 10.5224 16.0584 20.7558 -9.0662 92.1748 -0.0000 -0.0000 -22.6587 -28.5035 1.4543 -0.6655 0.0000 -0.0000 10.3011 -11.2397 -16.3245 -9.0516 0.0000 -0.0000 -8.0158 16.7474 0.1815 5.1608 -0.0000 -0.0000 6.5386 -14.7871 -6.6985 37.3228 -23.5252 6.3941 -53.3761 -22.1754 52.5239 100.9446 -0.0000 6.2429 -12.8324 -15.8439 -39.8394 33.1476 -0.0000 -26.2537 29.9101 1.3920 9.4909 -11.1789 -29.4223 -58.6194 -57.9086 0.0000 0.4888 0.0003 0.1481 -0.1210 32.8623 0.0000 24.3270 43.4393 -26.7875 18.4688
2.9494 35.9773 2.6826 -3.3413 13.1265 10.5771 15.7905 20.8976 -9.0012 91.8434 -0.0000 -0.0000 -22.6390 -28.4915 1.5713 -0.5702 0.0000 -0.0000 10.3504 -11.2210 -16.3778 -9.1313 0.0000 -0.0000 -7.9682 16.8239 0.1804 5.1835 -0.0000 -0.0000 6.6735 -14.6943 -6.8050 37.3060 -23.4656 6.3485 -53.3862 -22.1686 52.5696 100.9031 -0.0000 6.1627 -12.8161 -15.7911 -39.8941 33.1476 -0.0000 -26.2537 29.9268 1.3693 9.5039 -11.0691 -29.3183 -58.5328 -57.6433 -0.0000 0.5584 0.0005 0.1998 -0.1543 32.8623 0.0000 24.3270 43.4100 -26.6414 18.3354
2.9476 35.9704 2.6654 -3.3618 13.0177 10.6554 15.5235 21.0072 -8.9590 91.5271 -0.0000 -0.0000 -22.5585 -28.4001 1.6350 -0.6071 0.0000 -0.0000 10.3273 -11.3261 -16.4558 -9.1907 0.0000 -0.0000 -7.9269 16.9692 0.1883 5.1642 -0.0000 -0.0000 6.7868 -14.6656 -6.9252 37.2154 -23.4296 6.2711 -53.3400 -22.1563 52.6240 100.8529 -0.0000 6.1003 -12.8348 -15.7741 -39.9663 33.1476 -0.0000 -26.2537 29.9634 1.3467 9.5193 -10.9872 -29.2501 -58.4429 -57.3658 0.0000 0.6598 0.0003 0.2506 -0.0794 32.8623 0.0000 24.3270 43.3886 -26.5014 18.2266
2.9454 35.9639 2.6493 -3.4007 12.8939 10.7348 15.2929 21.1612 -8.9026 91.2315 -0.0000 -0.0000 -22.5102 -28.3356 1.7446 -0.5307 0.0000 -0.0000 10.3305 -11.4084 -16.5336 -9.2479 0.0000 -0.0000 -7.9066 17.1144 0.2147 5.2186 -0.0000 -0.0000 6.9209 -14.6379 -7.0448 37.1833 -23.3838 6.2272 -53.3581 -22.1266 52.6754 100.7982 0.0000 6.0219 -12.8422 -15.7277 -40.0642 33.1476 -0.0000 -26.2537 29.9986 1.3340 9.5357 -10.9504 -29.1616 -58.3886 -57.0728 0.0000 0.7845 0.0005 0.4050 -0.0770 32.8623 0.0000 24.3270 43.3639 -26.3624 18.1201
2.9430 35.9576 2.6298 -3.4454 12.7811 10.8202 15.0840 21.3193 -8.8530 90.9465 -0.0000 -0.0000 -22.4709 -28.2514 1.8426 -0.4097 0.0000 -0.0000 10.3204 -11.3584 -16.6285 -9.1991 0.0000 -0.0000 -7.9278 17.1145 0.2162 5.2171 -0.0000 -0.0000 7.0692 -14.6357 -7.1681 37.0943 -23.3207 6.1597 -53.3211 -22.1071 52.7039 100.7758 -0.0000 5.9345 -12.8782 -15.7089 -40.1787 33.1476 -0.0000 -26.2537 29.9524 1.3083 9.5549 -10.8540 -29.0761 -58.3477 -56.7524 0.0000 0.9294 0.0007 0.4477 -0.0941 32.8623 0.0000 24.3270 43.3190 -26.2239 18.0056
2.9430 35.9519 2.6164 -3.4551 12.6347 10.8909 14.8806 21.5331 -8.8033 90.6416 -0.0000 -0.0000 -22.4601 -28.2070 1.8777 -0.2800 0.0000 -0.0000 10.3167 -11.4197 -16.7117 -9.2813 0.0000 -0.0000 -7.8736 17.2758 0.2494 5.2250 -0.0000 -0.0000 7.1544 -14.6048 -7.2755 37.0757 -23.2947 6.1111 -53.3251 -22.0543 52.7621 100.7350 0.0000 5.8891 -12.8442 -15.6636 -40.1811 33.1476 -0.0000 -26.2537 29.9650 1.2934 9.5285 -10.7705 -29.0079 -58.2875 -56.4661 0.0000 1.1381 0.0018 0.6812 -0.1517 32.8623 0.0000 24.3270 43.3002 -26.0937 17.8637
2.9422 35.9455 2.6067 -3.5073 12.4795 10.9588 14.7406 21.7705 -8.7299 90.3485 -0.0000 -0.0000 -22.4594 -28.2218 1.8817 -0.2883 0.0000 -0.0000 10.3789 -11.4536 -16.7823 -9.3736 0.0000 -0.0000 -7.8495 17.4123 0.2994 5.3226 -0.0000 -0.0000 7.2826 -14.5809 -7.3634 37.0309 -23.2661 6.0336 -53.3026 -22.0119 52.8273 100.7244 0.0000 5.8180 -12.8587 -15.6743 -40.1951 33.1476 -0.0000 -26.2537 29.9859 1.2711 9.5043 -10.6994 -28.9307 -58.2362 -56.1688 -0.0000 1.3609 0.0029 0.7850 -0.2112 32.8623 0.0000 24.3270 43.2736 -25.9478 17.7115
2.9454 35.9393 2.5992 -3.5710 12.3402 11.0383 14.6543 22.0025 -8.6801 90.0412 -0.0000 -0.0000 -22.5213 -28.2246 1.8823 -0.2983 0.0000 -0.0000 10.4573 -11.4724 -16.8677 -9.4630 0.0000 -0.0000 -7.8019 17.5438 0.2924 5.2828 -0.0000 -0.0000 7.4199 -14.5651 -7.4523 36.9517 -23.2455 5.9736 -53.2494 -21.9325 52.8264 100.7118 -0.0000 5.7057 -12.8391 -15.6418 -40.2079 33.1476 -0.0000 -26.2537 30.0143 1.2651 9.4841 -10.6792 -28.8887 -58.2123 -55.8605 0.0000 1.5849 0.0048 0.9324 -0.2976 32.8623 0.0000 24.3270 43.2323 -25.8283 17.5938
2.9500 35.9332 2.5927 -3.6182 12.1976 11.1193 14.5508 22.2289 -8.6423 89.7550 -0.0000 -0.0000 -22.5409 -28.3324 1.9163 -0.3417 0.0000 -0.0000 10.5274 -11.4962 -16.9590 -9.5676 0.0000 -0.0000 -7.7464 17.6797 0.3070 5.2844 -0.0000 -0.0000 7.5245 -14.5560 -7.5380 36.9477 -23.2315 5.9092 -53.2157 -21.8597 52.8563 100.7257 0.0000 5.6527 -12.8760 -15.6558 -40.2672 33.1476 -0.0000 -26.2537 30.0341 1.2595 9.4446 -10.6192 -28.8659 -58.1846 -55.5766 0.0000 1.8396 0.0055 1.0458 -0.3006 32.8623 0.0000 24.3270 43.1795 -25.7096 17.4383
2.9530 35.9285 2.5831 -3.6730 12.0475 11.1818 14.4623 22.4710 -8.5791 89.4712 -0.0000 -0.0000 -22.6032 -28.3754 1.8953 -0.4341 0.0000 -0.0000 10.6071 -11.4916 -17.0344 -9.6630 0.0000 -0.0000 -7.7134 17.8061 0.2581 5.4175 -0.0000 -0.0000 7.6624 -14.5487 -7.5920 36.9498 -23.2246 5.8591 -53.2160 -21.7825 52.9124 100.7406 0.0000 5.6284 -12.8756 -15.6521 -40.2727 33.1476 -0.0000 -26.2537 30.0657 1.2491 9.4038 -10.6036 -28.8066 -58.1765 -55.3154 -0.0000 2.1288 0.0085 1.2168 -0.4005 32.8623 0.0000 24.3270 43.0940 -25.6049 17.2830
2.9570 35.9247 2.5757 -3.7321 11.9099 11.2281 14.3825 22.6478 -8.5433 89.1896 -0.0000 -0.0000 -22.6779 -28.4061 1.6944 -0.5060 0.0000 -0.0000 10.6882 -11.4913 -17.0936 -9.7448 0.0000 -0.0000 -7.6445 17.9231 0.3460 5.3033 -0.0000 -0.0000 7.7996 -14.5716 -7.6127 36.9525 -23.2048 5.8086 -53.2232 -21.6825 52.9380 100.7621 0.0000 5.5831 -12.8803 -15.6019 -40.3718 33.1476 -0.0000 -26.2537 30.0895 1.2376 9.3371 -10.5637 -28.7696 -58.1643 -55.0554 -0.0000 2.3297 0.0102 1.3323 -0.4372 32.8623 0.0000 24.3270 43.0068 -25.5015 17.1140
2.9607 35.9203 2.5674 -3.7900 11.7195 11.2910 14.2489 22.9450 -8.4411 89.0237 -0.0000 -0.0000 -22.6096 -28.6488 1.7857 -0.2787 0.0000 -0.0000 10.7842 -11.4637 -17.1758 -9.8543 0.0000 -0.0000 -7.5737 18.0598 0.4001 5.2786 -0.0000 -0.0000 7.9582 -14.5354 -7.6671 36.9191 -23.2028 5.7848 -53.2133 -21.5830 52.9635 100.8034 -0.0000 5.4354 -12.8680 -15.5462 -40.4426 33.1476 -0.0000 -26.2537 30.0824 1.2454 9.3010 -10.5158 -28.7545 -58.1791 -54.8336 0.0000 2.6247 0.0087 1.4017 -0.3563 32.8623 0.0000 24.3270 42.9109 -25.4346 17.0046
2.9676 35.9167 2.5545 -3.8748 11.6042 11.3491 14.1601 23.1014 -8.4016 88.8127 -0.0000 -0.0000 -22.6039 -28.9060 1.8867 -0.1322 0.0000 -0.0000 10.8459 -11.5041 -17.2455 -9.8979 0.0000 -0.0000 -7.5549 18.2036 0.4510 5.3515 -0.0000 -0.0000 8.1587 -14.5712 -7.6788 36.8932 -23.2144 5.7708 -53.2498 -21.4970 53.0086 100.8313 0.0000 5.3233 -12.8473 -15.5062 -40.4665 33.1476 -0.0000 -26.2537 30.0776 1.2541 9.2801 -10.5289 -28.7618 -58.2146 -54.6022 0.0000 2.7916 0.0120 1.5618 -0.4414 32.8623 0.0000 24.3270 42.7802 -25.3984 16.8956
2.9730 35.9136 2.5454 -3.9365 11.4134 11.3987 14.0805 23.3294 -8.3544 88.6111 -0.0000 -0.0000 -22.6475 -28.9476 1.8096 -0.3987 0.0000 -0.0000 10.9255 -11.4506 -17.3256 -9.9537 0.0000 -0.0000 -7.5247 18.3393 0.4980 5.3480 -0.0000 -0.0000 8.3367 -14.5289 -7.7047 36.8665 -23.2277 5.7779 -53.2843 -21.3935 53.0452 100.8634 -0.0000 5.2170 -12.8313 -15.4774 -40.4814 33.1476 -0.0000 -26.2537 30.0596 1.2371 9.2749 -10.4710 -28.7571 -58.2520 -54.4087 -0.0000 2.9382 0.0104 1.4985 -0.3993 32.8623 0.0000 24.3270 42.6551 -25.3524 16.8068
2.9767 35.9130 2.5355 -4.0234 11.2639 11.4348 14.0236 23.5012 -8.2910 88.3972 -0.0000 -0.0000 -22.6712 -29.0283 1.5994 -0.4761 0.0000 -0.0000 10.9883 -11.5694 -17.3738 -10.0250 0.0000 -0.0000 -7.4746 18.6125 0.5609 5.3294 -0.0000 -0.0000 8.5435 -14.5560 -7.7010 36.8032 -23.2049 5.7667 -53.3138 -21.3133 53.0813 100.9047 0.0000 5.2025 -12.8115 -15.4686 -40.4520 33.1476 -0.0000 -26.2537 30.1028 1.2469 9.2502 -10.5038 -28.7315 -58.3050 -54.2422 0.0000 3.0315 0.0126 1.6433 -0.4405 32.8623 0.0000 24.3270 42.5324 -25.2973 16.7141
2.9840 35.9113 2.5198 -4.0781 11.1386 11.4621 13.8941 23.6241 -8.2422 88.2318 -0.0000 -0.0000 -22.6555 -29.0792 1.6778 -0.2284 0.0000 -0.0000 11.0235 -11.5928 -17.4321 -10.0683 0.0000 -0.0000 -7.4477 18.7708 0.6783 5.3363 -0.0000 -0.0000 8.7162 -14.6288 -7.6682 36.7084 -23.1857 5.6782 -53.3187 -21.2798 53.1677 100.9488 0.0000 5.1500 -12.7751 -15.3624 -40.5589 33.1476 -0.0000 -26.2537 30.1548 1.2807 9.2239 -10.5511 -28.7153 -58.3937 -54.0681 0.0000 3.0640 0.0106 1.5229 -0.3985 32.8623 0.0000 24.3270 42.3766 -25.2444 16.5704
2.9876 35.9112 2.5077 -4.1492 10.9620 11.4639 13.7985 23.7772 -8.1701 88.0552 -0.0000 -0.0000 -22.7110 -29.1050 1.5906 -0.2622 0.0000 -0.0000 11.1064 -11.5939 -17.4611 -10.1412 0.0000 -0.0000 -7.4000 18.9641 0.7393 5.2985 -0.0000 -0.0000 8.9268 -14.6359 -7.6179 36.6403 -23.1757 5.6228 -53.3480 -21.2495 53.2640 100.9965 -0.0000 5.1516 -12.8079 -15.3426 -40.6697 33.1476 -0.0000 -26.2537 30.1185 1.2753 9.2160 -10.4954 -28.7112 -58.4692 -53.9304 0.0000 3.0734 0.0093 1.5633 -0.3398 32.8623 0.0000 24.3270 42.2430 -25.2013 16.4692
